<?xml version="1.0" encoding="UTF-8" standalone="no"?>
<!-- Created with Inkscape (http://www.inkscape.org/) -->

<svg
   xmlns:dc="http://purl.org/dc/elements/1.1/"
   xmlns:cc="http://creativecommons.org/ns#"
   xmlns:rdf="http://www.w3.org/1999/02/22-rdf-syntax-ns#"
   xmlns:svg="http://www.w3.org/2000/svg"
   xmlns="http://www.w3.org/2000/svg"
   xmlns:sodipodi="http://sodipodi.sourceforge.net/DTD/sodipodi-0.dtd"
   xmlns:inkscape="http://www.inkscape.org/namespaces/inkscape"
   id="svg7384"
   style="enable-background:new"
   height="16"
   width="16"
   version="1.1"
   inkscape:version="0.91 r13725"
   sodipodi:docname="gtk-clear.svg">
  <defs
     id="defs9" />
  <sodipodi:namedview
     pagecolor="#ffffff"
     bordercolor="#666666"
     borderopacity="1"
     objecttolerance="10"
     gridtolerance="10"
     guidetolerance="10"
     inkscape:pageopacity="0"
     inkscape:pageshadow="2"
     inkscape:window-width="1920"
     inkscape:window-height="1026"
     id="namedview7"
     showgrid="true"
     inkscape:zoom="14.75"
     inkscape:cx="-4.6779661"
     inkscape:cy="8"
     inkscape:window-x="0"
     inkscape:window-y="0"
     inkscape:window-maximized="1"
     inkscape:current-layer="svg7384">
    <inkscape:grid
       type="xygrid"
       id="grid4137" />
  </sodipodi:namedview>
  <metadata
     id="metadata90">
    <rdf:RDF>
      <cc:Work
         rdf:about="">
        <dc:format>image/svg+xml</dc:format>
        <dc:type
           rdf:resource="http://purl.org/dc/dcmitype/StillImage" />
        <dc:title>Paper Symbolic Icon Theme</dc:title>
      </cc:Work>
    </rdf:RDF>
  </metadata>
  <title
     id="title8473">Paper Symbolic Icon Theme</title>
  <path
     inkscape:connector-curvature="0"
     d="M 7.9999997,0 C 3.5765123,0 0,3.5763976 0,8.0000001 0,12.423487 3.5763975,16 7.9999997,16 12.423487,16 16,12.423601 16,8.0000001 16,3.5765125 12.423602,0 7.9999997,0 Z"
     style="color:#bebebe;text-indent:0;text-transform:none;block-progression:tb;opacity:1;fill:#4d4d4d;stroke:none;stroke-width:1.07112253;stroke-opacity:1;enable-background:new"
     id="path9228-3"
     sodipodi:nodetypes="sssss" />
  <path
     inkscape:connector-curvature="0"
     d="M 7.9999997,1 C 4.1294482,1 1,4.1293479 1,7.9999999 1,11.870551 4.1293477,15 7.9999997,15 11.870551,15 15,11.870651 15,7.9999999 15,4.1294484 11.870651,1 7.9999997,1 Z m -3.0435655,3.9586442 1.004477,0 c 0.2773764,0 0.5401978,0.100729 0.721968,0.2825092 L 7.9700161,6.5247746 9.2568516,5.2411534 C 9.4376575,5.059343 9.6988218,4.9588953 9.9800751,4.9588953 l 1.0044759,0 0,1.0044771 c 0,0.2773763 -0.100735,0.5401876 -0.282508,0.7219679 L 9.4152076,7.9689616 10.702043,9.2593128 c 0.181771,0.1817802 0.283886,0.444592 0.282508,0.7219681 l 0,1.0044771 -1.0044759,0 c -0.2773765,0 -0.5401976,-0.100729 -0.7219678,-0.282509 L 7.9712717,9.4128974 6.6841347,10.703249 c -0.1808058,0.180805 -0.4419699,0.281254 -0.7232235,0.281254 l -1.004477,0 0,-1.0044778 c 0,-0.2773761 0.1007387,-0.5401878 0.2825092,-0.721968 L 6.5260802,7.9677059 5.2389434,6.6840847 C 5.0581375,6.5032788 4.9576898,6.2401059 4.9576898,5.9628701 Z"
     style="color:#bebebe;text-indent:0;text-transform:none;block-progression:tb;opacity:1;fill:#e6e6e6;stroke:none;stroke-width:1.07112253;stroke-opacity:1;enable-background:new"
     id="path9228" />
</svg>
