<?xml version="1.0" encoding="UTF-8" standalone="no"?>
<!-- Created with Inkscape (http://www.inkscape.org/) -->

<svg
   xmlns:dc="http://purl.org/dc/elements/1.1/"
   xmlns:cc="http://creativecommons.org/ns#"
   xmlns:rdf="http://www.w3.org/1999/02/22-rdf-syntax-ns#"
   xmlns:svg="http://www.w3.org/2000/svg"
   xmlns="http://www.w3.org/2000/svg"
   xmlns:sodipodi="http://sodipodi.sourceforge.net/DTD/sodipodi-0.dtd"
   xmlns:inkscape="http://www.inkscape.org/namespaces/inkscape"
   id="svg4222"
   height="16"
   width="16"
   version="1.1"
   viewBox="0 0 32 32.000001"
   inkscape:version="0.91 r13725"
   sodipodi:docname="user-desktop.svg">
  <defs
     id="defs12" />
  <sodipodi:namedview
     pagecolor="#ffffff"
     bordercolor="#666666"
     borderopacity="1"
     objecttolerance="10"
     gridtolerance="10"
     guidetolerance="10"
     inkscape:pageopacity="0"
     inkscape:pageshadow="2"
     inkscape:window-width="1920"
     inkscape:window-height="1030"
     id="namedview10"
     showgrid="true"
     inkscape:zoom="24.49398"
     inkscape:cx="-3.7337222"
     inkscape:cy="6.299346"
     inkscape:window-x="0"
     inkscape:window-y="0"
     inkscape:window-maximized="1"
     inkscape:current-layer="svg4222"
     fit-margin-top="-0.1">
    <inkscape:grid
       type="xygrid"
       id="grid4137" />
  </sodipodi:namedview>
  <metadata
     id="metadata4227">
    <rdf:RDF>
      <cc:Work
         rdf:about="">
        <dc:format>image/svg+xml</dc:format>
        <dc:type
           rdf:resource="http://purl.org/dc/dcmitype/StillImage" />
        <dc:title />
      </cc:Work>
    </rdf:RDF>
  </metadata>
  <path
     style="fill:#6ba4e7;fill-opacity:1"
     inkscape:connector-curvature="0"
     d="M 2,6 2,26.625 C 2,27.38675 2.6244,28 3.4,28 l 25.2,0 C 29.3756,28 30,27.38675 30,26.625 L 30,6 Z"
     id="rect4203"
     inkscape:transform-center-x="-2.0785389"
     inkscape:transform-center-y="-3.6151429" />
  <path
     style="fill:#383c4a"
     inkscape:connector-curvature="0"
     d="M 3.4,4 C 2.6244,4 2,4.446 2,5 L 2,6 30,6 30,5 C 30,4.446 29.3756,4 28.6,4 Z"
     id="rect3328"
     inkscape:transform-center-x="-2.0785389"
     inkscape:transform-center-y="-11.629195" />
  <path
     style="fill:#383c4a"
     inkscape:connector-curvature="0"
     d="M 9.6,26 C 8.7136003,26 8,26.446 8,27 l 0,1 16,0 0,-1 c 0,-0.554 -0.7136,-1 -1.6,-1 L 9.6,26 Z"
     id="rect4155"
     inkscape:transform-center-x="-2.375473"
     inkscape:transform-center-y="4.3708054" />
</svg>
