<?xml version="1.0" encoding="UTF-8" standalone="no"?>
<!-- Created with Inkscape (http://www.inkscape.org/) -->

<svg
   xmlns:dc="http://purl.org/dc/elements/1.1/"
   xmlns:cc="http://creativecommons.org/ns#"
   xmlns:rdf="http://www.w3.org/1999/02/22-rdf-syntax-ns#"
   xmlns:svg="http://www.w3.org/2000/svg"
   xmlns="http://www.w3.org/2000/svg"
   xmlns:sodipodi="http://sodipodi.sourceforge.net/DTD/sodipodi-0.dtd"
   xmlns:inkscape="http://www.inkscape.org/namespaces/inkscape"
   id="svg7384"
   style="enable-background:new"
   height="16"
   width="16"
   version="1.1"
   inkscape:version="0.91 r13725"
   sodipodi:docname="gtk-preferences.svg">
  <sodipodi:namedview
     pagecolor="#ffffff"
     bordercolor="#666666"
     borderopacity="1"
     objecttolerance="10"
     gridtolerance="10"
     guidetolerance="10"
     inkscape:pageopacity="0"
     inkscape:pageshadow="2"
     inkscape:window-width="1920"
     inkscape:window-height="1026"
     id="namedview10"
     showgrid="true"
     inkscape:zoom="14.75"
     inkscape:cx="8"
     inkscape:cy="8"
     inkscape:window-x="0"
     inkscape:window-y="0"
     inkscape:window-maximized="1"
     inkscape:current-layer="svg7384">
    <inkscape:grid
       type="xygrid"
       id="grid4138" />
  </sodipodi:namedview>
  <metadata
     id="metadata90">
    <rdf:RDF>
      <cc:Work
         rdf:about="">
        <dc:format>image/svg+xml</dc:format>
        <dc:type
           rdf:resource="http://purl.org/dc/dcmitype/StillImage" />
        <dc:title>Paper Symbolic Icon Theme</dc:title>
      </cc:Work>
    </rdf:RDF>
  </metadata>
  <title
     id="title8473">Paper Symbolic Icon Theme</title>
  <defs
     id="defs7386">
    <filter
       id="filter7554"
       style="color-interpolation-filters:sRGB">
      <feBlend
         id="feBlend7556"
         in2="BackgroundImage"
         mode="darken" />
    </filter>
  </defs>
  <path
     inkscape:connector-curvature="0"
     d="M 6.25,1 6.0957,2.8438 A 5.5,5.5 0 0 0 4.4883,3.77349 L 2.8125,2.98443 1.0625,6.01563 2.584,7.07223 A 5.5,5.5 0 0 0 2.5,7.99996 5.5,5.5 0 0 0 2.5801,8.9316 l -1.5176,1.0527 1.75,3.0312 1.6719,-0.7871 a 5.5,5.5 0 0 0 1.6113,0.92382 l 0.15,1.85 3.5,0 0.1543,-1.8438 a 5.5,5.5 0 0 0 1.6074,-0.92969 l 1.6758,0.78906 1.75,-3.0312 -1.5215,-1.0566 a 5.5,5.5 0 0 0 0.084,-0.92773 5.5,5.5 0 0 0 -0.0801,-0.93164 l 1.5176,-1.0527 -1.75,-3.0312 -1.6719,0.7871 A 5.5,5.5 0 0 0 9.9,2.85 L 9.75,1 6.25,1 Z M 8,6 A 2,2 0 0 1 10,8 2,2 0 0 1 8,10 2,2 0 0 1 6,8 2,2 0 0 1 8,6 Z"
     style="opacity:1;fill:#e6e6e6;enable-background:new;stroke:#4d4d4d;stroke-opacity:1"
     id="path10500-6" />
</svg>
