<?xml version="1.0" encoding="UTF-8" standalone="no"?>
<!-- Created with Inkscape (http://www.inkscape.org/) -->

<svg
   xmlns:dc="http://purl.org/dc/elements/1.1/"
   xmlns:cc="http://creativecommons.org/ns#"
   xmlns:rdf="http://www.w3.org/1999/02/22-rdf-syntax-ns#"
   xmlns:svg="http://www.w3.org/2000/svg"
   xmlns="http://www.w3.org/2000/svg"
   xmlns:sodipodi="http://sodipodi.sourceforge.net/DTD/sodipodi-0.dtd"
   xmlns:inkscape="http://www.inkscape.org/namespaces/inkscape"
   id="svg7384"
   style="enable-background:new"
   height="16"
   width="16"
   version="1.1"
   inkscape:version="0.91 r13725"
   sodipodi:docname="system-search.svg">
  <defs
     id="defs9" />
  <sodipodi:namedview
     pagecolor="#ffffff"
     bordercolor="#666666"
     borderopacity="1"
     objecttolerance="10"
     gridtolerance="10"
     guidetolerance="10"
     inkscape:pageopacity="0"
     inkscape:pageshadow="2"
     inkscape:window-width="1920"
     inkscape:window-height="1026"
     id="namedview7"
     showgrid="true"
     inkscape:zoom="22.627417"
     inkscape:cx="0.91864368"
     inkscape:cy="15.032686"
     inkscape:window-x="0"
     inkscape:window-y="0"
     inkscape:window-maximized="1"
     inkscape:current-layer="svg7384">
    <inkscape:grid
       type="xygrid"
       id="grid4137" />
  </sodipodi:namedview>
  <metadata
     id="metadata90">
    <rdf:RDF>
      <cc:Work
         rdf:about="">
        <dc:format>image/svg+xml</dc:format>
        <dc:type
           rdf:resource="http://purl.org/dc/dcmitype/StillImage" />
        <dc:title>Paper Symbolic Icon Theme</dc:title>
      </cc:Work>
    </rdf:RDF>
  </metadata>
  <title
     id="title8473">Paper Symbolic Icon Theme</title>
  <path
     inkscape:connector-curvature="0"
     d="m 6.3735926,0.50010011 c 3.234474,0 5.9068014,2.64557559 5.9068014,5.88000739 0,1.2293491 -0.41564,2.3603415 -1.067904,3.3075571 l 3.937901,3.9422784 a 1.0737795,1.0749723 0 1 1 -1.501688,1.53682 L 9.7107992,11.224485 c -0.9475423,0.653119 -2.1069787,1.035683 -3.3372066,1.035683 -3.2345809,0 -5.87348364,-2.6455756 -5.87348364,-5.8800071 0,-3.2344317 2.63890274,-5.88000732 5.87348364,-5.88000732 z m 0,2.13818459 c -2.0796403,0 -3.7376714,1.6622245 -3.7376714,3.7418228 0,2.0794911 1.6580311,3.7418225 3.7376714,3.7418225 2.0796404,0 3.7376714,-1.6623314 3.7376714,-3.7418225 0,-2.0795983 -1.658031,-3.7418228 -3.7376714,-3.7418228 z"
     style="color:#ffffff;text-indent:0;text-decoration:none;text-decoration-line:none;text-transform:none;block-progression:tb;opacity:1;fill:#e6e6e6;stroke:#4d4d4d;stroke-width:1.00021791;stroke-miterlimit:4;stroke-dasharray:none;stroke-opacity:1;enable-background:new"
     id="path27918-2" />
</svg>
