<?xml version="1.0" encoding="UTF-8" standalone="no"?>
<!-- Created with Inkscape (http://www.inkscape.org/) -->

<svg
   xmlns:dc="http://purl.org/dc/elements/1.1/"
   xmlns:cc="http://creativecommons.org/ns#"
   xmlns:rdf="http://www.w3.org/1999/02/22-rdf-syntax-ns#"
   xmlns:svg="http://www.w3.org/2000/svg"
   xmlns="http://www.w3.org/2000/svg"
   xmlns:sodipodi="http://sodipodi.sourceforge.net/DTD/sodipodi-0.dtd"
   xmlns:inkscape="http://www.inkscape.org/namespaces/inkscape"
   id="svg7384"
   style="enable-background:new"
   height="24"
   width="24"
   version="1.1"
   inkscape:version="0.91 r13725"
   sodipodi:docname="user-trash-full.svg">
  <sodipodi:namedview
     pagecolor="#ffffff"
     bordercolor="#666666"
     borderopacity="1"
     objecttolerance="10"
     gridtolerance="10"
     guidetolerance="10"
     inkscape:pageopacity="0"
     inkscape:pageshadow="2"
     inkscape:window-width="1920"
     inkscape:window-height="1030"
     id="namedview11"
     showgrid="true"
     inkscape:zoom="29.5"
     inkscape:cx="10.700111"
     inkscape:cy="12.479139"
     inkscape:window-x="0"
     inkscape:window-y="0"
     inkscape:window-maximized="1"
     inkscape:current-layer="svg7384">
    <inkscape:grid
       type="xygrid"
       id="grid4139" />
  </sodipodi:namedview>
  <metadata
     id="metadata90">
    <rdf:RDF>
      <cc:Work
         rdf:about="">
        <dc:format>image/svg+xml</dc:format>
        <dc:type
           rdf:resource="http://purl.org/dc/dcmitype/StillImage" />
        <dc:title>Paper Symbolic Icon Theme</dc:title>
      </cc:Work>
    </rdf:RDF>
  </metadata>
  <title
     id="title8473">Paper Symbolic Icon Theme</title>
  <defs
     id="defs7386">
    <filter
       id="filter7554"
       style="color-interpolation-filters:sRGB">
      <feBlend
         id="feBlend7556"
         in2="BackgroundImage"
         mode="darken" />
    </filter>
  </defs>
  <path
     inkscape:connector-curvature="0"
     d="m 3.0283489,5.5115657 c 0,0 -1.6004561,5.9437203 -1.5378069,9.0031183 0.046146,2.483073 1.5381606,7.197312 1.5381606,7.197312 7.69e-5,0.942095 0.7328103,1.799239 1.5381608,1.79933 l 12.3052856,0 1.53816,0 c 0.805353,-9.1e-5 1.538082,-0.857235 1.53816,-1.79933 0,0 1.487878,-4.720535 1.538468,-7.190834 0.06152,-3.058857 -1.53816,-8.9966408 -1.53816,-8.9966408 z"
     style="color:#ffffff;text-indent:0;text-decoration:none;text-decoration-line:none;text-transform:none;block-progression:tb;opacity:1;fill:#e6e6e6;stroke:#4d4d4d;stroke-width:0.999946;stroke-miterlimit:4;stroke-dasharray:none;stroke-opacity:1;enable-background:accumulate"
     id="path8476" />
  <path
     inkscape:connector-curvature="0"
     d="m 1.4884733,3.8479897 0,1.6631593 20.0002547,-0.005 0,-1.663159 c 0,-1.6631594 -1.538173,-1.6688138 -1.538173,-1.6688138 l -4.615443,0 c 0,0 0,-1.66315888 -1.538481,-1.66315888 l -4.6154442,0 c -1.5384812,0 -1.5384812,1.66315888 -1.5384812,1.66315888 l -4.6154435,0 c 0,0 -1.5387888,0.005 -1.5387888,1.6688138 z"
     style="color:#ffffff;text-indent:0;text-transform:none;block-progression:tb;opacity:1;fill:#e6e6e6;stroke:#4d4d4d;stroke-width:0.99974537;stroke-miterlimit:4;stroke-dasharray:none;stroke-opacity:1;enable-background:accumulate"
     id="path8478" />
  <path
     style="fill:none;fill-rule:evenodd;stroke:#4d4d4d;stroke-width:1.00085366;stroke-linecap:round;stroke-linejoin:miter;stroke-miterlimit:4;stroke-dasharray:none;stroke-opacity:1"
     d="m 7.2878645,20.492794 c -1.2258739,-3.764227 -2.1623423,-7.583514 0,-11.9923187 l 0,0"
     id="path4142"
     inkscape:connector-curvature="0"
     sodipodi:nodetypes="ccc" />
  <path
     style="fill:none;fill-rule:evenodd;stroke:#4d4d4d;stroke-width:1.00085366;stroke-linecap:round;stroke-linejoin:miter;stroke-miterlimit:4;stroke-dasharray:none;stroke-opacity:1;enable-background:new"
     d="m 15.802815,8.5072043 c 1.225874,3.7642267 2.162342,7.5835147 0,11.9923187 l 0,0"
     id="path4142-3"
     inkscape:connector-curvature="0"
     sodipodi:nodetypes="ccc" />
  <path
     style="fill:none;fill-rule:evenodd;stroke:#4d4d4d;stroke-width:1.00007248;stroke-linecap:round;stroke-linejoin:miter;stroke-miterlimit:4;stroke-dasharray:none;stroke-opacity:1;enable-background:new"
     d="m 11.500086,8.5071948 0,11.9926822 0,0 0,0"
     id="path4140-3"
     inkscape:connector-curvature="0" />
</svg>
